<mxfile><diagram id="4QlJOzwbKbUHGW64l3Zc" name="ER図"><mxGraphModel dx="900" dy="260" grid="1" gridSize="10" guides="1" tooltips="1" connect="1" arrows="1" fold="1" page="1" pageScale="1" pageWidth="827" pageHeight="1169" math="0" shadow="0"><root><mxCell id="0"/><mxCell id="1" parent="0"/><mxCell id="Wvis9VBhWDYoZA4ndtn3-60" value="" style="edgeStyle=none;html=1;entryX=0.5;entryY=0;entryDx=0;entryDy=0;" parent="1" source="50" target="54" edge="1"><mxGeometry relative="1" as="geometry"/></mxCell><mxCell id="50" value="Titles" style="swimlane;fontStyle=0;childLayout=stackLayout;horizontal=1;startSize=26;horizontalStack=0;resizeParent=1;resizeParentMax=0;resizeLast=0;collapsible=1;marginBottom=0;align=center;fontSize=14;" parent="1" vertex="1"><mxGeometry x="334" y="180" width="160" height="180" as="geometry"><mxRectangle x="334" y="300" width="90" height="30" as="alternateBounds"/></mxGeometry></mxCell><mxCell id="52" value="id" style="text;strokeColor=none;fillColor=none;spacingLeft=4;spacingRight=4;overflow=hidden;rotatable=0;points=[[0,0.5],[1,0.5]];portConstraint=eastwest;fontSize=12;" parent="50" vertex="1"><mxGeometry y="26" width="160" height="30" as="geometry"/></mxCell><mxCell id="86" value="title" style="text;strokeColor=none;fillColor=none;spacingLeft=4;spacingRight=4;overflow=hidden;rotatable=0;points=[[0,0.5],[1,0.5]];portConstraint=eastwest;fontSize=12;" parent="50" vertex="1"><mxGeometry y="56" width="160" height="30" as="geometry"/></mxCell><mxCell id="53" value="user_id(FK)" style="text;strokeColor=none;fillColor=none;spacingLeft=4;spacingRight=4;overflow=hidden;rotatable=0;points=[[0,0.5],[1,0.5]];portConstraint=eastwest;fontSize=12;" parent="50" vertex="1"><mxGeometry y="86" width="160" height="34" as="geometry"/></mxCell><mxCell id="sI6Btj8okGWpoQYuVR5g-63" value="created_at" style="text;strokeColor=none;fillColor=none;spacingLeft=4;spacingRight=4;overflow=hidden;rotatable=0;points=[[0,0.5],[1,0.5]];portConstraint=eastwest;fontSize=12;" parent="50" vertex="1"><mxGeometry y="120" width="160" height="30" as="geometry"/></mxCell><mxCell id="64" value="updated_at" style="text;strokeColor=none;fillColor=none;spacingLeft=4;spacingRight=4;overflow=hidden;rotatable=0;points=[[0,0.5],[1,0.5]];portConstraint=eastwest;fontSize=12;" parent="50" vertex="1"><mxGeometry y="150" width="160" height="30" as="geometry"/></mxCell><mxCell id="54" value="Comments" style="swimlane;fontStyle=0;childLayout=stackLayout;horizontal=1;startSize=26;horizontalStack=0;resizeParent=1;resizeParentMax=0;resizeLast=0;collapsible=1;marginBottom=0;align=center;fontSize=14;" parent="1" vertex="1"><mxGeometry x="334" y="420" width="160" height="206" as="geometry"/></mxCell><mxCell id="55" value="id" style="text;strokeColor=none;fillColor=none;spacingLeft=4;spacingRight=4;overflow=hidden;rotatable=0;points=[[0,0.5],[1,0.5]];portConstraint=eastwest;fontSize=12;" parent="54" vertex="1"><mxGeometry y="26" width="160" height="30" as="geometry"/></mxCell><mxCell id="87" value="comment" style="text;strokeColor=none;fillColor=none;spacingLeft=4;spacingRight=4;overflow=hidden;rotatable=0;points=[[0,0.5],[1,0.5]];portConstraint=eastwest;fontSize=12;" parent="54" vertex="1"><mxGeometry y="56" width="160" height="30" as="geometry"/></mxCell><mxCell id="56" value="title_id(FK)" style="text;strokeColor=none;fillColor=none;spacingLeft=4;spacingRight=4;overflow=hidden;rotatable=0;points=[[0,0.5],[1,0.5]];portConstraint=eastwest;fontSize=12;" parent="54" vertex="1"><mxGeometry y="86" width="160" height="30" as="geometry"/></mxCell><mxCell id="57" value="user_id(FK)" style="text;strokeColor=none;fillColor=none;spacingLeft=4;spacingRight=4;overflow=hidden;rotatable=0;points=[[0,0.5],[1,0.5]];portConstraint=eastwest;fontSize=12;" parent="54" vertex="1"><mxGeometry y="116" width="160" height="30" as="geometry"/></mxCell><mxCell id="sI6Btj8okGWpoQYuVR5g-64" value="created_at" style="text;strokeColor=none;fillColor=none;spacingLeft=4;spacingRight=4;overflow=hidden;rotatable=0;points=[[0,0.5],[1,0.5]];portConstraint=eastwest;fontSize=12;" parent="54" vertex="1"><mxGeometry y="146" width="160" height="30" as="geometry"/></mxCell><mxCell id="65" value="updated_at" style="text;strokeColor=none;fillColor=none;spacingLeft=4;spacingRight=4;overflow=hidden;rotatable=0;points=[[0,0.5],[1,0.5]];portConstraint=eastwest;fontSize=12;" parent="54" vertex="1"><mxGeometry y="176" width="160" height="30" as="geometry"/></mxCell><mxCell id="sI6Btj8okGWpoQYuVR5g-62" value="&lt;span&gt;教師と家庭の連絡支援アプリ&lt;br&gt;ER図　第3版&lt;br&gt;&lt;/span&gt;" style="rounded=0;whiteSpace=wrap;html=1;" parent="1" vertex="1"><mxGeometry x="50" y="50" width="190" height="80" as="geometry"/></mxCell><mxCell id="sI6Btj8okGWpoQYuVR5g-65" value="Users" style="swimlane;fontStyle=0;childLayout=stackLayout;horizontal=1;startSize=26;fillColor=none;horizontalStack=0;resizeParent=1;resizeParentMax=0;resizeLast=0;collapsible=1;marginBottom=0;html=1;" parent="1" vertex="1"><mxGeometry x="50" y="180" width="180" height="520" as="geometry"/></mxCell><mxCell id="sI6Btj8okGWpoQYuVR5g-66" value="id" style="text;strokeColor=none;fillColor=none;align=left;verticalAlign=top;spacingLeft=4;spacingRight=4;overflow=hidden;rotatable=0;points=[[0,0.5],[1,0.5]];portConstraint=eastwest;whiteSpace=wrap;html=1;" parent="sI6Btj8okGWpoQYuVR5g-65" vertex="1"><mxGeometry y="26" width="180" height="26" as="geometry"/></mxCell><mxCell id="88" value="school_id" style="text;strokeColor=none;fillColor=none;align=left;verticalAlign=top;spacingLeft=4;spacingRight=4;overflow=hidden;rotatable=0;points=[[0,0.5],[1,0.5]];portConstraint=eastwest;whiteSpace=wrap;html=1;" parent="sI6Btj8okGWpoQYuVR5g-65" vertex="1"><mxGeometry y="52" width="180" height="26" as="geometry"/></mxCell><mxCell id="60" value="class_id" style="text;strokeColor=none;fillColor=none;align=left;verticalAlign=top;spacingLeft=4;spacingRight=4;overflow=hidden;rotatable=0;points=[[0,0.5],[1,0.5]];portConstraint=eastwest;whiteSpace=wrap;html=1;" parent="sI6Btj8okGWpoQYuVR5g-65" vertex="1"><mxGeometry y="78" width="180" height="26" as="geometry"/></mxCell><mxCell id="sI6Btj8okGWpoQYuVR5g-69" value="first_name" style="text;strokeColor=none;fillColor=none;align=left;verticalAlign=top;spacingLeft=4;spacingRight=4;overflow=hidden;rotatable=0;points=[[0,0.5],[1,0.5]];portConstraint=eastwest;whiteSpace=wrap;html=1;" parent="sI6Btj8okGWpoQYuVR5g-65" vertex="1"><mxGeometry y="104" width="180" height="26" as="geometry"/></mxCell><mxCell id="sI6Btj8okGWpoQYuVR5g-68" value="last_name" style="text;strokeColor=none;fillColor=none;align=left;verticalAlign=top;spacingLeft=4;spacingRight=4;overflow=hidden;rotatable=0;points=[[0,0.5],[1,0.5]];portConstraint=eastwest;whiteSpace=wrap;html=1;" parent="sI6Btj8okGWpoQYuVR5g-65" vertex="1"><mxGeometry y="130" width="180" height="26" as="geometry"/></mxCell><mxCell id="61" value="first_name_phonetic" style="text;strokeColor=none;fillColor=none;align=left;verticalAlign=top;spacingLeft=4;spacingRight=4;overflow=hidden;rotatable=0;points=[[0,0.5],[1,0.5]];portConstraint=eastwest;whiteSpace=wrap;html=1;" parent="sI6Btj8okGWpoQYuVR5g-65" vertex="1"><mxGeometry y="156" width="180" height="26" as="geometry"/></mxCell><mxCell id="62" value="last_name_phonetic" style="text;strokeColor=none;fillColor=none;align=left;verticalAlign=top;spacingLeft=4;spacingRight=4;overflow=hidden;rotatable=0;points=[[0,0.5],[1,0.5]];portConstraint=eastwest;whiteSpace=wrap;html=1;" parent="sI6Btj8okGWpoQYuVR5g-65" vertex="1"><mxGeometry y="182" width="180" height="26" as="geometry"/></mxCell><mxCell id="85" value="birthday" style="text;strokeColor=none;fillColor=none;align=left;verticalAlign=top;spacingLeft=4;spacingRight=4;overflow=hidden;rotatable=0;points=[[0,0.5],[1,0.5]];portConstraint=eastwest;whiteSpace=wrap;html=1;" parent="sI6Btj8okGWpoQYuVR5g-65" vertex="1"><mxGeometry y="208" width="180" height="26" as="geometry"/></mxCell><mxCell id="sI6Btj8okGWpoQYuVR5g-75" value="school_grade" style="text;strokeColor=none;fillColor=none;align=left;verticalAlign=top;spacingLeft=4;spacingRight=4;overflow=hidden;rotatable=0;points=[[0,0.5],[1,0.5]];portConstraint=eastwest;whiteSpace=wrap;html=1;" parent="sI6Btj8okGWpoQYuVR5g-65" vertex="1"><mxGeometry y="234" width="180" height="26" as="geometry"/></mxCell><mxCell id="sI6Btj8okGWpoQYuVR5g-70" value="school_class" style="text;strokeColor=none;fillColor=none;align=left;verticalAlign=top;spacingLeft=4;spacingRight=4;overflow=hidden;rotatable=0;points=[[0,0.5],[1,0.5]];portConstraint=eastwest;whiteSpace=wrap;html=1;" parent="sI6Btj8okGWpoQYuVR5g-65" vertex="1"><mxGeometry y="260" width="180" height="26" as="geometry"/></mxCell><mxCell id="sI6Btj8okGWpoQYuVR5g-71" value="gender" style="text;strokeColor=none;fillColor=none;align=left;verticalAlign=top;spacingLeft=4;spacingRight=4;overflow=hidden;rotatable=0;points=[[0,0.5],[1,0.5]];portConstraint=eastwest;whiteSpace=wrap;html=1;" parent="sI6Btj8okGWpoQYuVR5g-65" vertex="1"><mxGeometry y="286" width="180" height="26" as="geometry"/></mxCell><mxCell id="6VAcg8vwBcKDn5O7I0bp-59" value="email" style="text;strokeColor=none;fillColor=none;align=left;verticalAlign=top;spacingLeft=4;spacingRight=4;overflow=hidden;rotatable=0;points=[[0,0.5],[1,0.5]];portConstraint=eastwest;whiteSpace=wrap;html=1;" parent="sI6Btj8okGWpoQYuVR5g-65" vertex="1"><mxGeometry y="312" width="180" height="26" as="geometry"/></mxCell><mxCell id="Wvis9VBhWDYoZA4ndtn3-59" value="status" style="text;strokeColor=none;fillColor=none;align=left;verticalAlign=top;spacingLeft=4;spacingRight=4;overflow=hidden;rotatable=0;points=[[0,0.5],[1,0.5]];portConstraint=eastwest;whiteSpace=wrap;html=1;" parent="sI6Btj8okGWpoQYuVR5g-65" vertex="1"><mxGeometry y="338" width="180" height="26" as="geometry"/></mxCell><mxCell id="58" value="club" style="text;strokeColor=none;fillColor=none;align=left;verticalAlign=top;spacingLeft=4;spacingRight=4;overflow=hidden;rotatable=0;points=[[0,0.5],[1,0.5]];portConstraint=eastwest;whiteSpace=wrap;html=1;" parent="sI6Btj8okGWpoQYuVR5g-65" vertex="1"><mxGeometry y="364" width="180" height="26" as="geometry"/></mxCell><mxCell id="Wvis9VBhWDYoZA4ndtn3-57" value="is_active" style="text;strokeColor=none;fillColor=none;align=left;verticalAlign=top;spacingLeft=4;spacingRight=4;overflow=hidden;rotatable=0;points=[[0,0.5],[1,0.5]];portConstraint=eastwest;whiteSpace=wrap;html=1;" parent="sI6Btj8okGWpoQYuVR5g-65" vertex="1"><mxGeometry y="390" width="180" height="26" as="geometry"/></mxCell><mxCell id="Wvis9VBhWDYoZA4ndtn3-58" value="is_staff" style="text;strokeColor=none;fillColor=none;align=left;verticalAlign=top;spacingLeft=4;spacingRight=4;overflow=hidden;rotatable=0;points=[[0,0.5],[1,0.5]];portConstraint=eastwest;whiteSpace=wrap;html=1;" parent="sI6Btj8okGWpoQYuVR5g-65" vertex="1"><mxGeometry y="416" width="180" height="26" as="geometry"/></mxCell><mxCell id="63" value="password" style="text;strokeColor=none;fillColor=none;align=left;verticalAlign=top;spacingLeft=4;spacingRight=4;overflow=hidden;rotatable=0;points=[[0,0.5],[1,0.5]];portConstraint=eastwest;whiteSpace=wrap;html=1;" parent="sI6Btj8okGWpoQYuVR5g-65" vertex="1"><mxGeometry y="442" width="180" height="26" as="geometry"/></mxCell><mxCell id="66" value="&lt;span style=&quot;&quot;&gt;created_at&lt;/span&gt;" style="text;strokeColor=none;fillColor=none;align=left;verticalAlign=top;spacingLeft=4;spacingRight=4;overflow=hidden;rotatable=0;points=[[0,0.5],[1,0.5]];portConstraint=eastwest;whiteSpace=wrap;html=1;" parent="sI6Btj8okGWpoQYuVR5g-65" vertex="1"><mxGeometry y="468" width="180" height="26" as="geometry"/></mxCell><mxCell id="84" value="&lt;span style=&quot;&quot;&gt;updated_at&lt;/span&gt;" style="text;strokeColor=none;fillColor=none;align=left;verticalAlign=top;spacingLeft=4;spacingRight=4;overflow=hidden;rotatable=0;points=[[0,0.5],[1,0.5]];portConstraint=eastwest;whiteSpace=wrap;html=1;" parent="sI6Btj8okGWpoQYuVR5g-65" vertex="1"><mxGeometry y="494" width="180" height="26" as="geometry"/></mxCell><mxCell id="sI6Btj8okGWpoQYuVR5g-79" value="" style="edgeStyle=none;html=1;exitX=1;exitY=0.5;exitDx=0;exitDy=0;entryX=0;entryY=0.5;entryDx=0;entryDy=0;" parent="1" source="sI6Btj8okGWpoQYuVR5g-66" target="52" edge="1"><mxGeometry relative="1" as="geometry"><mxPoint x="330" y="205" as="targetPoint"/></mxGeometry></mxCell><mxCell id="Wvis9VBhWDYoZA4ndtn3-61" value="" style="edgeStyle=none;html=1;exitX=1;exitY=0.962;exitDx=0;exitDy=0;entryX=-0.006;entryY=-0.133;entryDx=0;entryDy=0;entryPerimeter=0;exitPerimeter=0;" parent="1" source="Wvis9VBhWDYoZA4ndtn3-57" target="65" edge="1"><mxGeometry relative="1" as="geometry"><mxPoint x="330" y="479" as="targetPoint"/></mxGeometry></mxCell></root></mxGraphModel></diagram><diagram id="HbdINj13Qlstv0SlX60C" name="画面遷移図"><mxGraphModel dx="900" dy="260" grid="1" gridSize="10" guides="1" tooltips="1" connect="1" arrows="1" fold="1" page="1" pageScale="1" pageWidth="827" pageHeight="1169" math="0" shadow="0"><root><mxCell id="0"/><mxCell id="1" parent="0"/><mxCell id="bMa8LDSchCP6qhBmOooj-1" value="&lt;span&gt;教師と家庭の連絡支援アプリ&lt;br&gt;画面遷移図　第3版&lt;br&gt;&lt;/span&gt;" style="rounded=0;whiteSpace=wrap;html=1;" parent="1" vertex="1"><mxGeometry x="50" y="50" width="190" height="80" as="geometry"/></mxCell><mxCell id="QoEW2YOkXQcxRdRGIUOT-3" value="&lt;div style=&quot;text-align: justify;&quot;&gt;&lt;/div&gt;" style="rounded=0;whiteSpace=wrap;html=1;" parent="1" vertex="1"><mxGeometry x="60" y="240" width="120" height="260" as="geometry"/></mxCell><mxCell id="QoEW2YOkXQcxRdRGIUOT-4" value="welcomeページ" style="rounded=0;whiteSpace=wrap;html=1;strokeColor=#FFFFFF;" parent="1" vertex="1"><mxGeometry x="70" y="250" width="100" height="40" as="geometry"/></mxCell><mxCell id="QoEW2YOkXQcxRdRGIUOT-17" value="" style="edgeStyle=none;html=1;" parent="1" source="QoEW2YOkXQcxRdRGIUOT-5" target="QoEW2YOkXQcxRdRGIUOT-9" edge="1"><mxGeometry relative="1" as="geometry"/></mxCell><mxCell id="QoEW2YOkXQcxRdRGIUOT-5" value="新規ユーザー登録" style="rounded=0;whiteSpace=wrap;html=1;strokeColor=#000000;" parent="1" vertex="1"><mxGeometry x="77.5" y="320" width="85" height="60" as="geometry"/></mxCell><mxCell id="QoEW2YOkXQcxRdRGIUOT-16" value="" style="edgeStyle=none;html=1;" parent="1" source="QoEW2YOkXQcxRdRGIUOT-6" target="QoEW2YOkXQcxRdRGIUOT-10" edge="1"><mxGeometry relative="1" as="geometry"/></mxCell><mxCell id="QoEW2YOkXQcxRdRGIUOT-6" value="ログイン" style="rounded=0;whiteSpace=wrap;html=1;strokeColor=#000000;" parent="1" vertex="1"><mxGeometry x="77.5" y="410" width="85" height="60" as="geometry"/></mxCell><mxCell id="QoEW2YOkXQcxRdRGIUOT-7" value="&lt;div style=&quot;text-align: justify;&quot;&gt;&lt;/div&gt;" style="rounded=0;whiteSpace=wrap;html=1;" parent="1" vertex="1"><mxGeometry x="330" y="80" width="160" height="550" as="geometry"/></mxCell><mxCell id="QoEW2YOkXQcxRdRGIUOT-8" value="ホーム画面" style="rounded=0;whiteSpace=wrap;html=1;strokeColor=#FFFFFF;" parent="1" vertex="1"><mxGeometry x="354" y="90" width="120" height="40" as="geometry"/></mxCell><mxCell id="LMT04-8Onj2_WbAnWED9-2" value="" style="edgeStyle=none;html=1;" parent="1" source="QoEW2YOkXQcxRdRGIUOT-9" edge="1"><mxGeometry relative="1" as="geometry"><mxPoint x="330" y="350" as="targetPoint"/></mxGeometry></mxCell><mxCell id="QoEW2YOkXQcxRdRGIUOT-9" value="新規ユーザー登録画面" style="rounded=0;whiteSpace=wrap;html=1;strokeColor=#000000;" parent="1" vertex="1"><mxGeometry x="210" y="320" width="85" height="60" as="geometry"/></mxCell><mxCell id="QoEW2YOkXQcxRdRGIUOT-18" value="" style="edgeStyle=none;html=1;" parent="1" source="QoEW2YOkXQcxRdRGIUOT-10" target="QoEW2YOkXQcxRdRGIUOT-9" edge="1"><mxGeometry relative="1" as="geometry"/></mxCell><mxCell id="LMT04-8Onj2_WbAnWED9-1" style="edgeStyle=none;html=1;exitX=1;exitY=0.5;exitDx=0;exitDy=0;entryX=-0.006;entryY=0.655;entryDx=0;entryDy=0;entryPerimeter=0;" parent="1" source="QoEW2YOkXQcxRdRGIUOT-10" target="QoEW2YOkXQcxRdRGIUOT-7" edge="1"><mxGeometry relative="1" as="geometry"/></mxCell><mxCell id="QoEW2YOkXQcxRdRGIUOT-10" value="ログイン画面" style="rounded=0;whiteSpace=wrap;html=1;strokeColor=#000000;" parent="1" vertex="1"><mxGeometry x="210" y="410" width="85" height="60" as="geometry"/></mxCell><mxCell id="QoEW2YOkXQcxRdRGIUOT-12" value="掲示板一覧" style="rounded=0;whiteSpace=wrap;html=1;strokeColor=#000000;" parent="1" vertex="1"><mxGeometry x="361.25" y="240" width="97.5" height="60" as="geometry"/></mxCell><mxCell id="QoEW2YOkXQcxRdRGIUOT-13" value="ユーザー&lt;br&gt;情報編集" style="rounded=0;whiteSpace=wrap;html=1;strokeColor=#000000;" parent="1" vertex="1"><mxGeometry x="361.25" y="430" width="97.5" height="70" as="geometry"/></mxCell><mxCell id="QoEW2YOkXQcxRdRGIUOT-14" value="検索" style="rounded=0;whiteSpace=wrap;html=1;strokeColor=#000000;" parent="1" vertex="1"><mxGeometry x="361.25" y="330" width="97.5" height="70" as="geometry"/></mxCell><mxCell id="QoEW2YOkXQcxRdRGIUOT-15" value="ログアウト" style="rounded=0;whiteSpace=wrap;html=1;strokeColor=#000000;" parent="1" vertex="1"><mxGeometry x="361.25" y="530" width="97.5" height="70" as="geometry"/></mxCell><mxCell id="QoEW2YOkXQcxRdRGIUOT-21" value="" style="rounded=0;whiteSpace=wrap;html=1;strokeColor=#000000;" parent="1" vertex="1"><mxGeometry x="538.5" y="520" width="100" height="170" as="geometry"/></mxCell><mxCell id="vRFD9d0slsYTQXJy1R2e-1" style="edgeStyle=none;html=1;exitX=0.5;exitY=1;exitDx=0;exitDy=0;entryX=0.5;entryY=1;entryDx=0;entryDy=0;" parent="1" source="QoEW2YOkXQcxRdRGIUOT-24" target="QoEW2YOkXQcxRdRGIUOT-3" edge="1"><mxGeometry relative="1" as="geometry"><Array as="points"><mxPoint x="590" y="800"/><mxPoint x="120" y="800"/></Array></mxGeometry></mxCell><mxCell id="QoEW2YOkXQcxRdRGIUOT-24" value="ログアウト&lt;br&gt;画面&lt;br&gt;&lt;br&gt;ｆ" style="rounded=0;whiteSpace=wrap;html=1;strokeColor=#000000;" parent="1" vertex="1"><mxGeometry x="539.5" y="710" width="97.5" height="80" as="geometry"/></mxCell><mxCell id="QoEW2YOkXQcxRdRGIUOT-30" value="ユーザー情報編集画面" style="rounded=0;whiteSpace=wrap;html=1;strokeColor=#FFFFFF;" parent="1" vertex="1"><mxGeometry x="553.5" y="530" width="75" height="30" as="geometry"/></mxCell><mxCell id="QoEW2YOkXQcxRdRGIUOT-31" value="更新" style="rounded=0;whiteSpace=wrap;html=1;strokeColor=#000000;" parent="1" vertex="1"><mxGeometry x="553.5" y="570" width="70" height="30" as="geometry"/></mxCell><mxCell id="QoEW2YOkXQcxRdRGIUOT-38" value="戻る" style="rounded=0;whiteSpace=wrap;html=1;strokeColor=#000000;" parent="1" vertex="1"><mxGeometry x="553.5" y="650" width="70" height="30" as="geometry"/></mxCell><mxCell id="fJB06qpIucejpPrfOWJN-1" style="edgeStyle=none;html=1;exitX=0.5;exitY=1;exitDx=0;exitDy=0;entryX=0.5;entryY=1;entryDx=0;entryDy=0;" parent="1" source="QoEW2YOkXQcxRdRGIUOT-41" target="QoEW2YOkXQcxRdRGIUOT-3" edge="1"><mxGeometry relative="1" as="geometry"><Array as="points"><mxPoint x="720" y="800"/><mxPoint x="120" y="800"/></Array></mxGeometry></mxCell><mxCell id="QoEW2YOkXQcxRdRGIUOT-41" value="削除画面&lt;br&gt;&lt;br&gt;ｆ" style="rounded=0;whiteSpace=wrap;html=1;strokeColor=#000000;" parent="1" vertex="1"><mxGeometry x="670" y="520" width="90" height="70" as="geometry"/></mxCell><mxCell id="QoEW2YOkXQcxRdRGIUOT-42" value="削除" style="rounded=0;whiteSpace=wrap;html=1;strokeColor=#000000;" parent="1" vertex="1"><mxGeometry x="553.5" y="610" width="70" height="30" as="geometry"/></mxCell><mxCell id="QoEW2YOkXQcxRdRGIUOT-45" value="戻る" style="rounded=0;whiteSpace=wrap;html=1;strokeColor=#000000;" parent="1" vertex="1"><mxGeometry x="682.5" y="560" width="60" height="20" as="geometry"/></mxCell><mxCell id="QoEW2YOkXQcxRdRGIUOT-47" value="" style="endArrow=classic;startArrow=classic;html=1;exitX=1;exitY=0.5;exitDx=0;exitDy=0;" parent="1" edge="1"><mxGeometry width="50" height="50" relative="1" as="geometry"><mxPoint x="458.75" y="564.5" as="sourcePoint"/><mxPoint x="540" y="670" as="targetPoint"/><Array as="points"/></mxGeometry></mxCell><mxCell id="QoEW2YOkXQcxRdRGIUOT-50" value="" style="endArrow=classic;startArrow=classic;html=1;entryX=0;entryY=0.5;entryDx=0;entryDy=0;exitX=1;exitY=0.5;exitDx=0;exitDy=0;" parent="1" target="QoEW2YOkXQcxRdRGIUOT-41" edge="1" source="QoEW2YOkXQcxRdRGIUOT-42"><mxGeometry width="50" height="50" relative="1" as="geometry"><mxPoint x="625" y="534.5" as="sourcePoint"/><mxPoint x="706.25" y="534.5" as="targetPoint"/><Array as="points"/></mxGeometry></mxCell><mxCell id="QoEW2YOkXQcxRdRGIUOT-52" value="" style="endArrow=classic;startArrow=classic;html=1;entryX=-0.025;entryY=0.153;entryDx=0;entryDy=0;exitX=1;exitY=0.5;exitDx=0;exitDy=0;entryPerimeter=0;" parent="1" edge="1" target="QoEW2YOkXQcxRdRGIUOT-21"><mxGeometry width="50" height="50" relative="1" as="geometry"><mxPoint x="458.75" y="464.5" as="sourcePoint"/><mxPoint x="540" y="464.5" as="targetPoint"/><Array as="points"/></mxGeometry></mxCell><mxCell id="QoEW2YOkXQcxRdRGIUOT-53" value="戻る" style="rounded=0;whiteSpace=wrap;html=1;strokeColor=#000000;" parent="1" vertex="1"><mxGeometry x="558.5" y="760" width="60" height="20" as="geometry"/></mxCell><mxCell id="vRFD9d0slsYTQXJy1R2e-2" value="ホーム" style="rounded=0;whiteSpace=wrap;html=1;strokeColor=#000000;" parent="1" vertex="1"><mxGeometry x="361.25" y="150" width="97.5" height="60" as="geometry"/></mxCell><mxCell id="AiS3pftzsDpDYZst12gL-1" value="" style="rounded=0;whiteSpace=wrap;html=1;strokeColor=#000000;" parent="1" vertex="1"><mxGeometry x="540" y="80" width="100" height="150" as="geometry"/></mxCell><mxCell id="AiS3pftzsDpDYZst12gL-2" value="編集" style="rounded=0;whiteSpace=wrap;html=1;strokeColor=#000000;" parent="1" vertex="1"><mxGeometry x="557.5" y="140" width="70" height="30" as="geometry"/></mxCell><mxCell id="AiS3pftzsDpDYZst12gL-4" value="戻る" style="rounded=0;whiteSpace=wrap;html=1;strokeColor=#000000;" parent="1" vertex="1"><mxGeometry x="556.5" y="180" width="70" height="30" as="geometry"/></mxCell><mxCell id="AiS3pftzsDpDYZst12gL-5" value="掲示板&lt;br&gt;一覧画面" style="rounded=0;whiteSpace=wrap;html=1;strokeColor=#FFFFFF;" parent="1" vertex="1"><mxGeometry x="552.5" y="95" width="75" height="30" as="geometry"/></mxCell><mxCell id="AiS3pftzsDpDYZst12gL-8" value="" style="rounded=0;whiteSpace=wrap;html=1;strokeColor=#000000;" parent="1" vertex="1"><mxGeometry x="670" y="80" width="90" height="220" as="geometry"/></mxCell><mxCell id="AiS3pftzsDpDYZst12gL-9" value="掲示板&lt;br&gt;編集画面" style="rounded=0;whiteSpace=wrap;html=1;strokeColor=#FFFFFF;" parent="1" vertex="1"><mxGeometry x="683.75" y="90" width="57.5" height="30" as="geometry"/></mxCell><mxCell id="AiS3pftzsDpDYZst12gL-10" value="更新" style="rounded=0;whiteSpace=wrap;html=1;strokeColor=#000000;" parent="1" vertex="1"><mxGeometry x="680" y="130" width="70" height="30" as="geometry"/></mxCell><mxCell id="-lXVnOBPfXhatPi9Lpvc-9" style="edgeStyle=none;html=1;entryX=1.019;entryY=0.222;entryDx=0;entryDy=0;exitX=1;exitY=0.5;exitDx=0;exitDy=0;entryPerimeter=0;" parent="1" source="AiS3pftzsDpDYZst12gL-11" target="QoEW2YOkXQcxRdRGIUOT-7" edge="1"><mxGeometry relative="1" as="geometry"><mxPoint x="770" y="320" as="sourcePoint"/><Array as="points"><mxPoint x="810" y="185"/><mxPoint x="810" y="60"/><mxPoint x="510" y="60"/><mxPoint x="510" y="180"/></Array></mxGeometry></mxCell><mxCell id="AiS3pftzsDpDYZst12gL-11" value="削除" style="rounded=0;whiteSpace=wrap;html=1;strokeColor=#000000;" parent="1" vertex="1"><mxGeometry x="680" y="170" width="70" height="30" as="geometry"/></mxCell><mxCell id="AiS3pftzsDpDYZst12gL-12" value="戻る" style="rounded=0;whiteSpace=wrap;html=1;strokeColor=#000000;" parent="1" vertex="1"><mxGeometry x="680" y="210" width="70" height="30" as="geometry"/></mxCell><mxCell id="-lXVnOBPfXhatPi9Lpvc-2" value="" style="endArrow=classic;startArrow=classic;html=1;entryX=-0.02;entryY=0.913;entryDx=0;entryDy=0;exitX=1;exitY=0.5;exitDx=0;exitDy=0;entryPerimeter=0;" parent="1" edge="1" target="AiS3pftzsDpDYZst12gL-1"><mxGeometry width="50" height="50" relative="1" as="geometry"><mxPoint x="459.75" y="350" as="sourcePoint"/><mxPoint x="541" y="350" as="targetPoint"/><Array as="points"/></mxGeometry></mxCell><mxCell id="-lXVnOBPfXhatPi9Lpvc-3" value="" style="endArrow=classic;startArrow=classic;html=1;exitX=0.95;exitY=0.5;exitDx=0;exitDy=0;exitPerimeter=0;" parent="1" source="AiS3pftzsDpDYZst12gL-2" edge="1"><mxGeometry width="50" height="50" relative="1" as="geometry"><mxPoint x="625" y="285" as="sourcePoint"/><mxPoint x="670" y="155" as="targetPoint"/><Array as="points"/></mxGeometry></mxCell><mxCell id="-lXVnOBPfXhatPi9Lpvc-4" value="" style="endArrow=classic;startArrow=classic;html=1;exitX=1;exitY=0.5;exitDx=0;exitDy=0;entryX=0;entryY=0.75;entryDx=0;entryDy=0;" parent="1" edge="1" target="AiS3pftzsDpDYZst12gL-1" source="QoEW2YOkXQcxRdRGIUOT-12"><mxGeometry width="50" height="50" relative="1" as="geometry"><mxPoint x="457.25" y="280" as="sourcePoint"/><mxPoint x="539" y="280" as="targetPoint"/><Array as="points"/></mxGeometry></mxCell><mxCell id="-lXVnOBPfXhatPi9Lpvc-5" value="&lt;font style=&quot;font-size: 9px;&quot;&gt;(上記機能はstatusがteacherのみ&lt;/font&gt;" style="rounded=0;whiteSpace=wrap;html=1;strokeColor=#FFFFFF;" parent="1" vertex="1"><mxGeometry x="673.13" y="250" width="81.25" height="40" as="geometry"/></mxCell><mxCell id="-jAiVhqe0CELiUlCLlrS-1" value="" style="rounded=0;whiteSpace=wrap;html=1;strokeColor=#000000;" vertex="1" parent="1"><mxGeometry x="538.5" y="240" width="100" height="270" as="geometry"/></mxCell><mxCell id="-jAiVhqe0CELiUlCLlrS-2" value="コメント&lt;br&gt;投稿" style="rounded=0;whiteSpace=wrap;html=1;strokeColor=#000000;" vertex="1" parent="1"><mxGeometry x="556" y="300" width="70" height="30" as="geometry"/></mxCell><mxCell id="-jAiVhqe0CELiUlCLlrS-3" value="戻る" style="rounded=0;whiteSpace=wrap;html=1;strokeColor=#000000;" vertex="1" parent="1"><mxGeometry x="555" y="470" width="70" height="30" as="geometry"/></mxCell><mxCell id="-jAiVhqe0CELiUlCLlrS-4" value="掲示板&lt;br&gt;詳細画面" style="rounded=0;whiteSpace=wrap;html=1;strokeColor=#FFFFFF;" vertex="1" parent="1"><mxGeometry x="551" y="250" width="75" height="30" as="geometry"/></mxCell><mxCell id="-jAiVhqe0CELiUlCLlrS-6" value="コメント&lt;br&gt;編集" style="rounded=0;whiteSpace=wrap;html=1;strokeColor=#000000;" vertex="1" parent="1"><mxGeometry x="555" y="340" width="70" height="30" as="geometry"/></mxCell><mxCell id="-jAiVhqe0CELiUlCLlrS-8" value="&lt;font style=&quot;font-size: 9px;&quot;&gt;(上記機能はstatusがteacherのみ)&lt;/font&gt;" style="rounded=0;whiteSpace=wrap;html=1;strokeColor=#FFFFFF;" vertex="1" parent="1"><mxGeometry x="550.5" y="420" width="79" height="40" as="geometry"/></mxCell><mxCell id="-jAiVhqe0CELiUlCLlrS-12" value="コメント&lt;br&gt;削除" style="rounded=0;whiteSpace=wrap;html=1;strokeColor=#000000;" vertex="1" parent="1"><mxGeometry x="555" y="380" width="70" height="30" as="geometry"/></mxCell><mxCell id="-jAiVhqe0CELiUlCLlrS-13" value="" style="rounded=0;whiteSpace=wrap;html=1;strokeColor=#000000;" vertex="1" parent="1"><mxGeometry x="670" y="320" width="90" height="90" as="geometry"/></mxCell><mxCell id="-jAiVhqe0CELiUlCLlrS-14" value="コメント&lt;br&gt;編集画面" style="rounded=0;whiteSpace=wrap;html=1;strokeColor=#FFFFFF;" vertex="1" parent="1"><mxGeometry x="677.5" y="330" width="75" height="30" as="geometry"/></mxCell><mxCell id="-jAiVhqe0CELiUlCLlrS-15" value="戻る" style="rounded=0;whiteSpace=wrap;html=1;strokeColor=#000000;" vertex="1" parent="1"><mxGeometry x="678.75" y="370" width="70" height="30" as="geometry"/></mxCell><mxCell id="-jAiVhqe0CELiUlCLlrS-16" value="" style="rounded=0;whiteSpace=wrap;html=1;strokeColor=#000000;" vertex="1" parent="1"><mxGeometry x="668.75" y="420" width="90" height="90" as="geometry"/></mxCell><mxCell id="-jAiVhqe0CELiUlCLlrS-17" value="コメント&lt;br&gt;削除画面" style="rounded=0;whiteSpace=wrap;html=1;strokeColor=#FFFFFF;" vertex="1" parent="1"><mxGeometry x="676.25" y="430" width="75" height="30" as="geometry"/></mxCell><mxCell id="-jAiVhqe0CELiUlCLlrS-18" value="戻る" style="rounded=0;whiteSpace=wrap;html=1;strokeColor=#000000;" vertex="1" parent="1"><mxGeometry x="677.5" y="470" width="70" height="30" as="geometry"/></mxCell><mxCell id="-jAiVhqe0CELiUlCLlrS-21" value="" style="endArrow=classic;startArrow=classic;html=1;entryX=0;entryY=0.5;entryDx=0;entryDy=0;exitX=1;exitY=0.5;exitDx=0;exitDy=0;" edge="1" parent="1" source="-jAiVhqe0CELiUlCLlrS-12" target="-jAiVhqe0CELiUlCLlrS-16"><mxGeometry width="50" height="50" relative="1" as="geometry"><mxPoint x="625" y="399.25" as="sourcePoint"/><mxPoint x="702.25" y="480.76" as="targetPoint"/><Array as="points"/></mxGeometry></mxCell><mxCell id="-jAiVhqe0CELiUlCLlrS-22" value="" style="endArrow=classic;startArrow=classic;html=1;entryX=0;entryY=0.5;entryDx=0;entryDy=0;exitX=1;exitY=0.5;exitDx=0;exitDy=0;" edge="1" parent="1" source="-jAiVhqe0CELiUlCLlrS-6" target="-jAiVhqe0CELiUlCLlrS-13"><mxGeometry width="50" height="50" relative="1" as="geometry"><mxPoint x="625" y="350" as="sourcePoint"/><mxPoint x="668.75" y="420" as="targetPoint"/><Array as="points"/></mxGeometry></mxCell></root></mxGraphModel></diagram></mxfile>